<svg width="600" height="200" viewBox="0 0 600 200" fill="none" xmlns="http://www.w3.org/2000/svg">
<path d="M510.229 103.475H519.978V105.511H512.551V107.796H519.128V109.708H512.551V112.894H520.132V114.923H510.229V103.475ZM521.772 110.638C521.772 109.95 521.902 109.33 522.161 108.778C522.419 108.221 522.776 107.748 523.23 107.357C523.689 106.961 524.231 106.659 524.856 106.449C525.486 106.234 526.167 106.126 526.899 106.126C527.212 106.126 527.519 106.146 527.822 106.185C528.13 106.224 528.423 106.278 528.701 106.346C528.984 106.415 529.248 106.498 529.492 106.595C529.741 106.688 529.961 106.791 530.151 106.903V102.772H532.319V114.923H530.151V114.11C529.961 114.242 529.736 114.366 529.477 114.483C529.219 114.601 528.94 114.703 528.643 114.791C528.345 114.879 528.035 114.947 527.712 114.996C527.395 115.05 527.08 115.077 526.768 115.077C526.035 115.077 525.361 114.969 524.746 114.754C524.136 114.54 523.611 114.237 523.171 113.846C522.732 113.456 522.388 112.989 522.139 112.447C521.894 111.9 521.772 111.297 521.772 110.638ZM524.05 110.638C524.05 110.985 524.119 111.312 524.255 111.62C524.397 111.927 524.597 112.198 524.856 112.433C525.12 112.662 525.435 112.845 525.801 112.982C526.172 113.114 526.587 113.18 527.046 113.18C527.339 113.18 527.632 113.153 527.925 113.099C528.218 113.041 528.498 112.96 528.767 112.857C529.04 112.755 529.294 112.63 529.529 112.484C529.768 112.337 529.976 112.174 530.151 111.993V108.998C529.932 108.822 529.7 108.673 529.456 108.551C529.211 108.429 528.962 108.329 528.708 108.25C528.455 108.172 528.198 108.116 527.939 108.082C527.681 108.043 527.429 108.023 527.185 108.023C526.687 108.023 526.243 108.092 525.852 108.229C525.466 108.36 525.139 108.543 524.871 108.778C524.607 109.012 524.404 109.288 524.263 109.605C524.121 109.923 524.05 110.267 524.05 110.638ZM536.121 105.101C535.906 105.101 535.71 105.072 535.535 105.013C535.364 104.95 535.217 104.867 535.095 104.764C534.973 104.657 534.878 104.535 534.81 104.398C534.746 104.256 534.714 104.107 534.714 103.951C534.714 103.79 534.746 103.641 534.81 103.504C534.878 103.363 534.973 103.241 535.095 103.138C535.217 103.036 535.364 102.955 535.535 102.896C535.71 102.833 535.906 102.801 536.121 102.801C536.34 102.801 536.536 102.833 536.706 102.896C536.882 102.955 537.031 103.036 537.153 103.138C537.275 103.241 537.368 103.363 537.432 103.504C537.5 103.641 537.534 103.79 537.534 103.951C537.534 104.107 537.5 104.256 537.432 104.398C537.368 104.535 537.275 104.657 537.153 104.764C537.031 104.867 536.882 104.95 536.706 105.013C536.536 105.072 536.34 105.101 536.121 105.101ZM535.037 106.28H537.205V114.923H535.037V106.28ZM541.291 107.906H539.204V106.28H541.291V103.592H543.459V106.28H545.547V107.906H543.459V114.923H541.291V107.906ZM548.616 105.101C548.401 105.101 548.206 105.072 548.03 105.013C547.859 104.95 547.712 104.867 547.59 104.764C547.468 104.657 547.373 104.535 547.305 104.398C547.241 104.256 547.209 104.107 547.209 103.951C547.209 103.79 547.241 103.641 547.305 103.504C547.373 103.363 547.468 103.241 547.59 103.138C547.712 103.036 547.859 102.955 548.03 102.896C548.206 102.833 548.401 102.801 548.616 102.801C548.835 102.801 549.031 102.833 549.202 102.896C549.377 102.955 549.526 103.036 549.648 103.138C549.77 103.241 549.863 103.363 549.927 103.504C549.995 103.641 550.029 103.79 550.029 103.951C550.029 104.107 549.995 104.256 549.927 104.398C549.863 104.535 549.77 104.657 549.648 104.764C549.526 104.867 549.377 104.95 549.202 105.013C549.031 105.072 548.835 105.101 548.616 105.101ZM547.532 106.28H549.7V114.923H547.532V106.28ZM551.963 110.602C551.963 109.981 552.087 109.4 552.336 108.858C552.59 108.316 552.949 107.843 553.413 107.438C553.882 107.032 554.446 106.712 555.105 106.478C555.769 106.244 556.514 106.126 557.339 106.126C558.164 106.126 558.906 106.244 559.565 106.478C560.229 106.712 560.793 107.032 561.257 107.438C561.726 107.843 562.085 108.316 562.334 108.858C562.588 109.4 562.715 109.981 562.715 110.602C562.715 111.222 562.588 111.803 562.334 112.345C562.085 112.887 561.726 113.36 561.257 113.766C560.793 114.171 560.229 114.491 559.565 114.725C558.906 114.959 558.164 115.077 557.339 115.077C556.514 115.077 555.769 114.959 555.105 114.725C554.446 114.491 553.882 114.171 553.413 113.766C552.949 113.36 552.59 112.887 552.336 112.345C552.087 111.803 551.963 111.222 551.963 110.602ZM554.241 110.602C554.241 110.948 554.309 111.278 554.446 111.59C554.587 111.898 554.79 112.171 555.054 112.411C555.322 112.645 555.647 112.833 556.028 112.975C556.414 113.111 556.851 113.18 557.339 113.18C557.827 113.18 558.262 113.111 558.643 112.975C559.028 112.833 559.353 112.645 559.617 112.411C559.885 112.171 560.088 111.898 560.225 111.59C560.366 111.278 560.437 110.948 560.437 110.602C560.437 110.255 560.366 109.925 560.225 109.613C560.088 109.3 559.885 109.027 559.617 108.792C559.353 108.553 559.028 108.365 558.643 108.229C558.262 108.087 557.827 108.016 557.339 108.016C556.851 108.016 556.414 108.087 556.028 108.229C555.647 108.365 555.322 108.553 555.054 108.792C554.79 109.027 554.587 109.3 554.446 109.613C554.309 109.925 554.241 110.255 554.241 110.602ZM564.905 106.28H567.073V107.013C567.649 106.686 568.198 106.456 568.721 106.324C569.248 106.192 569.763 106.126 570.266 106.126C570.925 106.126 571.536 106.224 572.097 106.419C572.659 106.61 573.144 106.896 573.555 107.276C573.965 107.657 574.285 108.133 574.514 108.705C574.748 109.271 574.866 109.928 574.866 110.675V114.923H572.705V111.026C572.705 110.553 572.637 110.13 572.5 109.759C572.368 109.383 572.175 109.068 571.921 108.814C571.672 108.556 571.367 108.36 571.006 108.229C570.649 108.092 570.249 108.023 569.805 108.023C569.57 108.023 569.329 108.048 569.08 108.097C568.835 108.146 568.594 108.216 568.354 108.309C568.12 108.397 567.893 108.509 567.673 108.646C567.454 108.778 567.253 108.929 567.073 109.1V114.923H564.905V106.28Z" fill="#3A4257"/>
<path d="M457.495 120.879C456.808 121.067 456.092 120.924 455.348 120.451C454.619 120.035 453.973 119.473 453.411 118.766C452.906 118.043 452.575 117.395 452.419 116.823C451.777 114.476 451.604 111.817 451.899 108.845C452.236 105.801 452.83 102.686 453.682 99.501C454.591 96.3001 455.604 93.2553 456.721 90.3665C457.88 87.4049 458.997 84.8544 460.073 82.715C457.485 79.5473 454.757 76.8791 451.889 74.7107C449.077 72.5265 445.881 70.5091 442.3 68.6585C441.675 68.3986 441.285 67.9825 441.128 67.4102C441.003 66.9523 441.044 66.5412 441.252 66.1768C441.445 65.7552 441.77 65.4818 442.228 65.3567C442.342 65.3254 442.493 65.3149 442.68 65.3252C442.925 65.3199 443.084 65.338 443.157 65.3796C447.148 66.2569 450.62 68.0452 453.572 70.7444C456.566 73.3708 459.284 76.2262 461.726 79.3108C462.153 78.3947 462.87 76.9685 463.878 75.0321C464.944 73.08 466.171 70.9302 467.559 68.5825C468.932 66.1776 470.328 63.8585 471.747 61.6253C473.167 59.392 474.529 57.5127 475.835 55.9873C477.124 54.4046 478.227 53.4881 479.143 53.2378C479.658 53.0971 480.085 53.1957 480.423 53.5338C480.746 53.8146 480.97 54.184 481.095 54.6418C481.236 55.1569 481.27 55.732 481.197 56.3669C481.166 56.9289 480.961 57.4156 480.581 57.8269C477.029 61.2581 473.865 64.9832 471.088 69.0021C468.295 72.9638 465.73 77.0788 463.39 81.3472C464.13 82.2523 465.254 83.6672 466.764 85.5918C468.275 87.5164 469.998 89.6595 471.935 92.021C473.857 94.3253 475.841 96.5203 477.887 98.6059C479.918 100.634 481.81 102.27 483.564 103.513C485.303 104.698 486.716 105.142 487.804 104.845C488.891 104.548 489.572 103.778 489.848 102.534C490.164 101.217 490.247 99.7181 490.095 98.0374C489.927 96.2993 489.682 94.6134 489.358 92.9796C489.077 91.2729 488.865 89.8237 488.724 88.6321C488.583 87.4405 488.676 86.7691 489.004 86.618C489.264 86.6699 489.462 86.8311 489.597 87.1017C489.79 87.3566 489.918 87.5985 489.98 87.8274C490.215 88.6859 490.486 89.9035 490.794 91.4801C491.159 93.0411 491.47 94.74 491.726 96.5768C491.982 98.4136 492.071 100.204 491.994 101.947C491.958 103.618 491.681 105.077 491.161 106.327C490.641 107.576 489.78 108.365 488.579 108.693C487.205 109.069 485.526 108.666 483.543 107.486C481.56 106.306 479.488 104.688 477.327 102.634C475.151 100.522 473.008 98.3093 470.899 95.9947C468.832 93.6073 466.971 91.4096 465.315 89.4018C463.716 87.3784 462.495 85.8361 461.651 84.7749C460.575 86.9143 459.52 89.3555 458.486 92.0985C457.436 94.7842 456.54 97.5818 455.798 100.491C455.055 103.401 454.578 106.268 454.366 109.094C454.211 111.904 454.455 114.483 455.096 116.829C455.346 117.745 455.661 118.335 456.041 118.601C456.479 118.85 456.864 119.022 457.197 119.115C457.546 119.266 457.783 119.57 457.908 120.028C458.033 120.486 457.895 120.77 457.495 120.879ZM501.282 106.421C500.767 106.561 500.376 106.484 500.111 106.187C499.845 105.891 499.658 105.542 499.548 105.141L499.501 104.97C498.657 101.879 498.096 98.9262 497.818 96.1111C497.541 93.2959 497.227 90.46 496.877 87.6032C496.568 84.6736 495.96 81.549 495.053 78.2294C494.803 77.3137 494.456 76.2705 494.013 75.0999C493.612 73.8564 493.075 72.6806 492.403 71.5725C491.789 70.4488 491.073 69.6296 490.255 69.1148C489.964 68.9485 489.771 68.6936 489.677 68.3502C489.537 67.8351 489.64 67.3146 489.989 66.7888C490.337 66.263 490.761 65.9012 491.261 65.7031L492.127 65.8354C492.986 66.2772 493.778 67.2603 494.502 68.7847C495.21 70.2518 495.812 71.7788 496.307 73.3657C496.802 74.9527 497.175 76.204 497.426 77.1197C497.77 78.3789 498.085 79.6459 498.372 80.9207C498.659 82.1955 498.925 83.5067 499.17 84.8544C499.253 84.0321 499.396 82.9783 499.598 81.6928C499.785 80.3501 500.065 79.0125 500.439 77.6801C500.854 76.2749 501.353 75.0621 501.936 74.0418C502.575 73.0059 503.381 72.355 504.354 72.0891C505.327 71.8232 506.22 72.1635 507.032 73.1102C507.829 73.9996 508.524 75.1936 509.118 76.6919C509.77 78.1747 510.319 79.6237 510.768 81.0389C511.2 82.3969 511.511 83.4193 511.698 84.1061C511.807 83.1537 512.014 81.7746 512.321 79.9687C512.684 78.1471 513.122 76.1512 513.637 73.9809C514.208 71.795 514.86 69.6792 515.592 67.6337C516.325 65.5882 517.115 63.8653 517.963 62.465C518.794 61.0075 519.697 60.1457 520.67 59.8798C521.471 59.6608 522.075 59.9571 522.481 60.7687C522.945 61.5647 523.255 62.2488 523.411 62.8211C524.037 65.1105 524.441 67.4911 524.625 69.9628C524.866 72.4189 525.086 74.9115 525.285 77.4404C525.541 79.9538 526.005 82.441 526.678 84.902C526.756 85.1882 526.928 85.8178 527.194 86.7908C527.517 87.7481 527.882 88.6326 528.289 89.4442C528.736 90.1829 529.218 90.4818 529.733 90.3411C530.592 90.1064 531.361 89.4347 532.043 88.3259C532.724 87.2171 533.288 86.0173 533.734 84.7265C534.223 83.3629 534.607 82.1814 534.888 81.1821C535.21 80.1099 535.457 79.5503 535.628 79.5034C535.92 79.6698 536.113 79.9247 536.207 80.2681C536.363 80.8404 536.283 81.785 535.966 83.1017C535.649 84.4185 535.169 85.8108 534.524 87.2786C533.937 88.7308 533.274 90.0191 532.536 91.1436C531.782 92.2108 531.09 92.8304 530.46 93.0025C529.373 93.2997 528.366 92.9906 527.439 92.0752C526.57 91.1442 525.833 90.0231 525.228 88.7121C524.681 87.3854 524.306 86.35 524.103 85.606C523.493 83.3738 523.033 81.1312 522.725 78.8781C522.401 76.5677 522.142 74.2704 521.949 71.986C521.865 70.7787 521.822 69.4986 521.822 68.1456C521.878 66.7769 521.75 65.5202 521.437 64.3756C521.343 64.0322 521.135 63.72 520.812 63.4392L520.617 63.4003C520.274 63.4941 519.91 63.9627 519.525 64.8059C519.125 65.5919 518.769 66.4273 518.457 67.3121C518.202 68.1813 518 68.7903 517.849 69.139C516.519 72.8241 515.649 76.5063 515.24 80.1857C514.815 83.8078 514.234 87.5341 513.498 91.3645C513.446 91.6248 513.337 91.9006 513.17 92.1921C513.061 92.468 512.863 92.645 512.577 92.7232C512.005 92.8797 511.456 92.4454 510.929 91.4206C510.445 90.3228 510.007 89.0585 509.616 87.6276C509.256 86.3112 508.949 85.0729 508.693 83.9126C508.479 82.6794 508.309 81.8338 508.184 81.3759C508.122 81.147 507.96 80.6683 507.699 79.9399C507.496 79.1959 507.22 78.4102 506.871 77.583C506.579 76.7401 506.261 76.0274 505.917 75.4447C505.631 74.8464 505.344 74.5864 505.058 74.6646C504.486 74.821 504.091 75.1751 503.872 75.7268C503.711 76.2629 503.55 76.799 503.389 77.3351C502.496 80.5932 501.941 83.8511 501.724 87.1089C501.559 90.1064 501.675 93.1194 502.072 96.1478C502.454 99.119 502.526 102.083 502.288 105.039C502.304 105.772 501.969 106.233 501.282 106.421ZM544.806 95.8172C543.833 96.0831 542.984 95.7921 542.26 94.9443C541.552 94.1537 540.977 93.1731 540.534 92.0024C540.091 90.8318 539.783 89.9317 539.611 89.3021C539.017 87.1272 538.591 84.7831 538.335 82.2697C538.063 79.6992 537.952 77.269 538.003 74.9793C538.024 73.9281 538.155 72.3851 538.399 70.3502C538.627 68.2581 538.99 66.0983 539.488 63.8708C540.044 61.6276 540.743 59.6836 541.585 58.0387C542.469 56.321 543.54 55.29 544.799 54.9459C545.772 54.68 546.948 54.8199 548.328 55.3655C549.707 55.9112 550.537 56.6991 550.819 57.7294C550.928 58.13 550.879 58.5125 550.671 58.8769C550.713 58.804 550.848 58.7363 551.077 58.6737C552.165 58.3765 552.865 58.8003 553.178 59.9449C553.537 61.2613 553.767 62.89 553.867 64.831C554.024 66.7564 554.184 68.804 554.347 70.9739C554.493 73.0866 554.825 75.0873 555.341 76.9761C555.529 77.6629 555.813 78.4771 556.193 79.4188C556.558 80.3033 557.042 81.0628 557.646 81.6974C558.308 82.3163 559.125 82.4928 560.098 82.2268C561.013 81.9766 561.853 81.2241 562.618 79.9696C563.382 78.7151 564.055 77.2394 564.637 75.5426C565.219 73.8458 565.744 72.1647 566.211 70.4992C566.679 68.8337 567.065 67.4363 567.372 66.3069C567.736 65.1618 568.032 64.558 568.261 64.4954C568.661 64.3859 568.932 64.5888 569.073 65.1039C569.261 65.7907 569.22 66.8783 568.95 68.3668C568.722 69.7823 568.332 71.3957 567.782 73.207C567.215 74.961 566.527 76.7177 565.716 78.477C564.947 80.1635 564.086 81.6289 563.134 82.8731C562.224 84.0445 561.311 84.7553 560.396 85.0055C558.908 85.4123 557.599 85.1241 556.469 84.1412C555.381 83.0854 554.459 81.7381 553.704 80.0993C553.005 78.4448 552.453 76.8735 552.046 75.3855C551.905 74.8703 551.772 74.3839 551.647 73.926C551.522 73.4681 551.441 73.0596 551.405 72.7006C551.28 73.5957 551.122 74.9306 550.931 76.7052C550.723 78.4226 550.449 80.343 550.106 82.4664C549.806 84.5169 549.403 86.5336 548.9 88.5165C548.438 90.4266 547.869 92.0583 547.193 93.4117C546.517 94.7651 545.721 95.5669 544.806 95.8172ZM544.507 92.0237C545.251 91.8204 545.893 90.9067 546.433 89.2828C546.974 87.6589 547.441 85.6552 547.835 83.2716C548.271 80.8151 548.611 78.2312 548.854 75.5199C549.097 72.8085 549.293 70.2637 549.443 67.8855C549.634 65.4343 549.792 63.423 549.916 61.8513C550.024 60.2224 550.149 59.3273 550.289 59.1659L549.797 59.3925C549.397 59.502 549.027 59.3878 548.689 59.0497C548.335 58.6544 547.931 58.3033 547.478 57.9965C547.025 57.6898 546.398 57.6459 545.597 57.8649C544.567 58.1464 543.729 59.0211 543.085 60.489C542.44 61.9568 541.895 63.6744 541.448 65.6417C541.044 67.5361 540.745 69.3706 540.554 71.1453C540.419 72.9042 540.347 74.2157 540.337 75.0795C540.272 79.3415 540.81 83.5616 541.952 87.7397C542.015 87.9686 542.155 88.4837 542.374 89.285C542.635 90.0134 542.945 90.6976 543.304 91.3374C543.705 91.9044 544.106 92.1332 544.507 92.0237ZM574.345 85.4372C573.315 85.7188 572.659 85.3444 572.378 84.3142C572.112 83.3412 572.158 82.1599 572.516 80.7703C572.916 79.3078 573.459 77.8062 574.145 76.2655C574.816 74.6675 575.518 73.184 576.251 71.815C577.041 70.4304 577.685 69.3008 578.185 68.4263C577.274 68.2446 576.178 68.175 574.898 68.2173C573.66 68.1867 572.385 68.1354 571.073 68.0632C569.803 67.9182 568.674 67.6118 567.685 67.1439C566.738 66.6032 566.1 65.7319 565.771 64.53C565.427 63.2709 565.494 61.7149 565.972 59.862C566.507 57.9935 567.315 56.1119 568.396 54.2171C569.462 52.2651 570.635 50.5914 571.914 49.1961C573.178 47.7435 574.411 46.853 575.612 46.5245C576.357 46.3212 577.127 46.326 577.923 46.5389C578.761 46.6789 579.297 47.1782 579.532 48.0367C579.594 48.2657 579.623 48.5961 579.618 49.028C579.613 49.46 579.468 49.715 579.181 49.7932C578.781 49.9027 578.383 49.7963 577.987 49.4738C577.633 49.0785 577.284 48.9278 576.941 49.0217C575.968 49.2876 574.904 50.0089 573.749 51.1856C572.652 52.3466 571.646 53.7288 570.731 55.3321C569.8 56.8782 569.085 58.4267 568.587 59.9777C568.145 61.5131 568.065 62.7959 568.347 63.8261C568.534 64.5129 569.099 65.0044 570.041 65.3005C570.983 65.5966 572.045 65.7678 573.226 65.814C574.465 65.8445 575.675 65.8829 576.856 65.9291C578.022 65.9181 578.909 66.0139 579.518 66.2165C579.726 65.8521 580.087 65.2613 580.602 64.444C581.117 63.6267 581.702 62.7287 582.357 61.75C583.012 60.7714 583.613 59.9306 584.159 59.2278C584.762 58.5093 585.207 58.111 585.493 58.0328C585.722 57.9702 585.868 58.0534 585.93 58.2823C586.008 58.5685 585.855 59.1332 585.471 59.9765C585.128 60.7468 584.657 61.6135 584.059 62.5766C583.518 63.5239 582.999 64.4349 582.499 65.3094C581.985 66.1267 581.623 66.7175 581.415 67.0819C582.165 67.7997 582.673 68.645 582.939 69.618C583.205 70.591 583.104 71.9102 582.637 73.5757C582.154 75.184 581.441 76.8548 580.501 78.5882C579.617 80.3059 578.613 81.8104 577.49 83.1016C576.367 84.3927 575.318 85.1713 574.345 85.4372ZM576.411 80.1672C576.926 80.0264 577.449 79.576 577.979 78.8159C578.567 78.0402 579.087 77.1293 579.539 76.083C579.991 75.0368 580.337 74.0505 580.576 73.1241C580.856 72.1248 580.926 71.3676 580.785 70.8525C580.629 70.2801 580.397 69.8822 580.09 69.6586C579.84 70.0958 579.445 70.7881 578.904 71.7355C578.421 72.6673 577.904 73.7005 577.353 74.8353C576.843 75.8971 576.412 76.9069 576.059 77.8646C575.747 78.7495 575.646 79.3922 575.755 79.7928C575.849 80.1362 576.068 80.261 576.411 80.1672Z" fill="#E44B5D"/>
<circle cx="91.8485" cy="104.911" r="64.7746" fill="#3A4257"/>
<path d="M108.613 42.344C116.83 44.5456 124.532 48.344 131.281 53.5223C138.029 58.7007 143.692 65.1575 147.945 72.5242L91.8485 104.912L108.613 42.344Z" fill="#E44B5D"/>
<path d="M35.7521 72.5243C40.0053 65.1576 45.6678 58.7007 52.4163 53.5224C59.1648 48.3441 66.8672 44.5457 75.0837 42.3441L91.8486 104.912L35.7521 72.5243Z" fill="#8BC5C3"/>
<path d="M156.623 104.911C156.623 112.519 155.283 120.067 152.664 127.21L91.8485 104.911H156.623Z" fill="#CCEBDF"/>
<path d="M108.614 167.478C101.265 169.447 93.6269 170.106 86.0496 169.425L91.8486 104.911L108.614 167.478Z" fill="#8BC5C3"/>
<g filter="url(#filter0_d_3_56)">
<path d="M170.554 60.0001H177.984V90.1172H199.288V96.6329H170.554V60.0001ZM204.327 87.9141C204.327 86.586 204.616 85.3751 205.195 84.2813C205.773 83.1876 206.64 82.2501 207.796 81.4688C208.952 80.6719 210.39 80.0626 212.109 79.6407C213.843 79.2032 215.859 78.9844 218.156 78.9844C219.859 78.9844 221.648 79.1094 223.523 79.3594C225.413 79.6094 227.359 79.9922 229.359 80.5079C229.281 79.6329 229.015 78.8282 228.562 78.0938C228.109 77.3438 227.476 76.7032 226.663 76.1719C225.866 75.6251 224.898 75.2032 223.757 74.9063C222.632 74.6094 221.351 74.461 219.913 74.461C219.132 74.461 218.273 74.5079 217.335 74.6016C216.398 74.6954 215.429 74.836 214.429 75.0235C213.429 75.211 212.437 75.4454 211.452 75.7266C210.484 76.0079 209.577 76.3438 208.734 76.7344L206.624 71.0391C207.671 70.6641 208.788 70.3204 209.976 70.0079C211.179 69.6954 212.406 69.4297 213.656 69.211C214.906 68.9766 216.156 68.7969 217.406 68.6719C218.656 68.5469 219.866 68.4844 221.038 68.4844C226.21 68.4844 230.054 69.8047 232.57 72.4454C235.085 75.086 236.343 79.1329 236.343 84.586V96.6329H229.406V94.0313C228.687 94.4532 227.898 94.8516 227.038 95.2266C226.195 95.6016 225.273 95.9297 224.273 96.211C223.273 96.4922 222.195 96.711 221.038 96.8672C219.898 97.0391 218.687 97.1251 217.406 97.1251C215.249 97.1251 213.351 96.8907 211.71 96.4219C210.085 95.9532 208.726 95.3047 207.632 94.4766C206.538 93.6485 205.71 92.6797 205.148 91.5704C204.601 90.4454 204.327 89.2266 204.327 87.9141ZM211.64 87.6797C211.64 88.1329 211.757 88.5704 211.991 88.9922C212.226 89.3985 212.601 89.7657 213.116 90.0938C213.632 90.4063 214.288 90.6641 215.085 90.8672C215.898 91.0547 216.874 91.1485 218.015 91.1485C219.234 91.1485 220.413 91.0391 221.554 90.8204C222.695 90.6016 223.757 90.3126 224.741 89.9532C225.726 89.5938 226.616 89.1797 227.413 88.711C228.21 88.2422 228.874 87.7579 229.406 87.2579V86.0391C228.343 85.7422 227.288 85.4922 226.241 85.2891C225.21 85.086 224.218 84.9297 223.265 84.8204C222.327 84.6954 221.437 84.6094 220.593 84.5626C219.765 84.5157 219.038 84.4922 218.413 84.4922C217.116 84.4922 216.038 84.5782 215.179 84.7501C214.32 84.9219 213.624 85.1563 213.093 85.4532C212.562 85.7344 212.187 86.0704 211.968 86.461C211.749 86.8516 211.64 87.2579 211.64 87.6797ZM262.335 60.0001H280.968C283.781 60.0001 286.218 60.2969 288.281 60.8907C290.343 61.4688 292.054 62.3126 293.413 63.4219C294.773 64.5313 295.781 65.8829 296.437 67.4766C297.109 69.0704 297.445 70.8751 297.445 72.8907C297.445 74.2501 297.281 75.5469 296.952 76.7813C296.624 78.0001 296.116 79.1251 295.429 80.1563C294.757 81.1876 293.906 82.1094 292.874 82.9219C291.843 83.7188 290.632 84.3829 289.241 84.9141L297.21 96.6329H288.116L281.226 86.2266H281.015L269.765 86.2032V96.6329H262.335V60.0001ZM281.156 79.7813C282.562 79.7813 283.788 79.6172 284.835 79.2891C285.898 78.961 286.781 78.5001 287.484 77.9063C288.202 77.3126 288.734 76.5938 289.077 75.7501C289.437 74.8907 289.616 73.9376 289.616 72.8907C289.616 70.8438 288.913 69.2657 287.507 68.1563C286.101 67.0313 283.984 66.4688 281.156 66.4688H269.765V79.7813H281.156ZM305.39 68.9532H312.304V82.4532C312.304 83.7344 312.445 84.9063 312.726 85.9688C313.007 87.0157 313.484 87.9141 314.156 88.6641C314.843 89.4141 315.749 90.0001 316.874 90.4219C318.015 90.8282 319.429 91.0313 321.116 91.0313C321.913 91.0313 322.718 90.9454 323.531 90.7735C324.359 90.6016 325.148 90.3672 325.898 90.0704C326.648 89.7579 327.343 89.3907 327.984 88.9688C328.64 88.5469 329.202 88.086 329.671 87.586V68.9532H336.609V96.6329H329.671V94.2657C327.968 95.2813 326.257 96.0079 324.538 96.4454C322.82 96.8829 321.187 97.1016 319.64 97.1016C317.109 97.1016 314.937 96.7969 313.124 96.1876C311.327 95.5782 309.851 94.6954 308.695 93.5391C307.554 92.3672 306.718 90.9376 306.187 89.2501C305.656 87.5469 305.39 85.6094 305.39 83.4376V68.9532ZM343.757 82.8047C343.757 80.8204 344.156 78.961 344.952 77.2266C345.765 75.4922 346.913 73.9766 348.398 72.6797C349.898 71.3829 351.702 70.3594 353.812 69.6094C355.937 68.8594 358.32 68.4844 360.96 68.4844C363.601 68.4844 365.976 68.8594 368.085 69.6094C370.21 70.3594 372.015 71.3829 373.499 72.6797C374.999 73.9766 376.148 75.4922 376.945 77.2266C377.757 78.961 378.163 80.8204 378.163 82.8047C378.163 84.7891 377.757 86.6485 376.945 88.3829C376.148 90.1172 374.999 91.6329 373.499 92.9297C372.015 94.2266 370.21 95.2501 368.085 96.0001C365.976 96.7501 363.601 97.1251 360.96 97.1251C358.32 97.1251 355.937 96.7501 353.812 96.0001C351.702 95.2501 349.898 94.2266 348.398 92.9297C346.913 91.6329 345.765 90.1172 344.952 88.3829C344.156 86.6485 343.757 84.7891 343.757 82.8047ZM351.046 82.8047C351.046 83.9141 351.265 84.9688 351.702 85.9688C352.156 86.9532 352.804 87.8282 353.648 88.5938C354.507 89.3438 355.546 89.9454 356.765 90.3985C357.999 90.836 359.398 91.0547 360.96 91.0547C362.523 91.0547 363.913 90.836 365.132 90.3985C366.366 89.9454 367.406 89.3438 368.249 88.5938C369.109 87.8282 369.757 86.9532 370.195 85.9688C370.648 84.9688 370.874 83.9141 370.874 82.8047C370.874 81.6954 370.648 80.6407 370.195 79.6407C369.757 78.6407 369.109 77.7657 368.249 77.0157C367.406 76.2501 366.366 75.6485 365.132 75.211C363.913 74.7579 362.523 74.5313 360.96 74.5313C359.398 74.5313 357.999 74.7579 356.765 75.211C355.546 75.6485 354.507 76.2501 353.648 77.0157C352.804 77.7657 352.156 78.6407 351.702 79.6407C351.265 80.6407 351.046 81.6954 351.046 82.8047ZM389.343 74.1797H382.663V68.9766H389.343V60.3751H396.281V68.9766H402.96V74.1797H396.281V96.6329H389.343V74.1797ZM407.812 87.9141C407.812 86.586 408.101 85.3751 408.679 84.2813C409.257 83.1876 410.124 82.2501 411.281 81.4688C412.437 80.6719 413.874 80.0626 415.593 79.6407C417.327 79.2032 419.343 78.9844 421.64 78.9844C423.343 78.9844 425.132 79.1094 427.007 79.3594C428.898 79.6094 430.843 79.9922 432.843 80.5079C432.765 79.6329 432.499 78.8282 432.046 78.0938C431.593 77.3438 430.96 76.7032 430.148 76.1719C429.351 75.6251 428.382 75.2032 427.241 74.9063C426.116 74.6094 424.835 74.461 423.398 74.461C422.616 74.461 421.757 74.5079 420.82 74.6016C419.882 74.6954 418.913 74.836 417.913 75.0235C416.913 75.211 415.921 75.4454 414.937 75.7266C413.968 76.0079 413.062 76.3438 412.218 76.7344L410.109 71.0391C411.156 70.6641 412.273 70.3204 413.46 70.0079C414.663 69.6954 415.89 69.4297 417.14 69.211C418.39 68.9766 419.64 68.7969 420.89 68.6719C422.14 68.5469 423.351 68.4844 424.523 68.4844C429.695 68.4844 433.538 69.8047 436.054 72.4454C438.57 75.086 439.827 79.1329 439.827 84.586V96.6329H432.89V94.0313C432.171 94.4532 431.382 94.8516 430.523 95.2266C429.679 95.6016 428.757 95.9297 427.757 96.211C426.757 96.4922 425.679 96.711 424.523 96.8672C423.382 97.0391 422.171 97.1251 420.89 97.1251C418.734 97.1251 416.835 96.8907 415.195 96.4219C413.57 95.9532 412.21 95.3047 411.116 94.4766C410.023 93.6485 409.195 92.6797 408.632 91.5704C408.085 90.4454 407.812 89.2266 407.812 87.9141ZM415.124 87.6797C415.124 88.1329 415.241 88.5704 415.476 88.9922C415.71 89.3985 416.085 89.7657 416.601 90.0938C417.116 90.4063 417.773 90.6641 418.57 90.8672C419.382 91.0547 420.359 91.1485 421.499 91.1485C422.718 91.1485 423.898 91.0391 425.038 90.8204C426.179 90.6016 427.241 90.3126 428.226 89.9532C429.21 89.5938 430.101 89.1797 430.898 88.711C431.695 88.2422 432.359 87.7579 432.89 87.2579V86.0391C431.827 85.7422 430.773 85.4922 429.726 85.2891C428.695 85.086 427.702 84.9297 426.749 84.8204C425.812 84.6954 424.921 84.6094 424.077 84.5626C423.249 84.5157 422.523 84.4922 421.898 84.4922C420.601 84.4922 419.523 84.5782 418.663 84.7501C417.804 84.9219 417.109 85.1563 416.577 85.4532C416.046 85.7344 415.671 86.0704 415.452 86.461C415.234 86.8516 415.124 87.2579 415.124 87.6797ZM167.554 142.922C167.554 140.719 167.968 138.734 168.796 136.969C169.624 135.188 170.765 133.672 172.218 132.422C173.687 131.156 175.421 130.188 177.421 129.516C179.437 128.828 181.616 128.484 183.96 128.484C184.96 128.484 185.945 128.547 186.913 128.672C187.898 128.797 188.835 128.969 189.726 129.188C190.632 129.406 191.476 129.672 192.257 129.984C193.054 130.281 193.757 130.609 194.366 130.969V117.75H201.304V156.633H194.366V154.031C193.757 154.453 193.038 154.852 192.21 155.227C191.382 155.602 190.491 155.93 189.538 156.211C188.585 156.492 187.593 156.711 186.562 156.867C185.546 157.039 184.538 157.125 183.538 157.125C181.195 157.125 179.038 156.781 177.07 156.094C175.116 155.406 173.437 154.438 172.031 153.188C170.624 151.938 169.523 150.445 168.726 148.711C167.945 146.961 167.554 145.031 167.554 142.922ZM174.843 142.922C174.843 144.031 175.062 145.078 175.499 146.063C175.952 147.047 176.593 147.914 177.421 148.664C178.265 149.398 179.273 149.984 180.445 150.422C181.632 150.844 182.96 151.055 184.429 151.055C185.366 151.055 186.304 150.969 187.241 150.797C188.179 150.609 189.077 150.352 189.937 150.023C190.812 149.695 191.624 149.297 192.374 148.828C193.14 148.359 193.804 147.836 194.366 147.258V137.672C193.663 137.109 192.921 136.633 192.14 136.242C191.359 135.852 190.562 135.531 189.749 135.281C188.937 135.031 188.116 134.852 187.288 134.742C186.46 134.617 185.656 134.555 184.874 134.555C183.281 134.555 181.859 134.773 180.609 135.211C179.374 135.633 178.327 136.219 177.468 136.969C176.624 137.719 175.976 138.602 175.523 139.617C175.07 140.633 174.843 141.734 174.843 142.922ZM208.499 142.711C208.499 140.836 208.882 139.047 209.648 137.344C210.413 135.625 211.515 134.109 212.952 132.797C214.39 131.484 216.148 130.438 218.226 129.656C220.32 128.875 222.695 128.484 225.351 128.484C227.991 128.484 230.366 128.883 232.476 129.68C234.601 130.461 236.398 131.539 237.866 132.914C239.351 134.289 240.484 135.906 241.265 137.766C242.062 139.625 242.46 141.617 242.46 143.742C242.46 144.008 242.452 144.297 242.437 144.609C242.437 144.906 242.421 145.18 242.39 145.43H216.234C216.531 146.258 217.007 147.016 217.663 147.703C218.335 148.391 219.171 148.984 220.171 149.484C221.171 149.984 222.327 150.375 223.64 150.656C224.952 150.922 226.406 151.055 227.999 151.055C229.593 151.055 231.179 150.891 232.757 150.563C234.335 150.219 235.843 149.789 237.281 149.273L239.624 154.57C238.718 154.992 237.796 155.367 236.859 155.695C235.937 156.008 234.968 156.273 233.952 156.492C232.952 156.695 231.898 156.852 230.788 156.961C229.695 157.07 228.538 157.125 227.32 157.125C224.21 157.125 221.484 156.75 219.14 156C216.796 155.25 214.835 154.227 213.257 152.93C211.679 151.633 210.491 150.109 209.695 148.359C208.898 146.609 208.499 144.727 208.499 142.711ZM235.101 140.016C234.851 139.25 234.46 138.539 233.929 137.883C233.413 137.211 232.765 136.633 231.984 136.148C231.202 135.648 230.296 135.258 229.265 134.977C228.234 134.695 227.101 134.555 225.866 134.555C224.554 134.555 223.359 134.703 222.281 135C221.202 135.297 220.257 135.695 219.445 136.195C218.632 136.695 217.952 137.273 217.406 137.93C216.874 138.586 216.484 139.281 216.234 140.016H235.101ZM250.124 117.75H257.062V156.633H250.124V117.75ZM266.156 117.75H273.093V156.633H266.156V117.75ZM280.687 147.914C280.687 146.586 280.976 145.375 281.554 144.281C282.132 143.188 282.999 142.25 284.156 141.469C285.312 140.672 286.749 140.063 288.468 139.641C290.202 139.203 292.218 138.984 294.515 138.984C296.218 138.984 298.007 139.109 299.882 139.359C301.773 139.609 303.718 139.992 305.718 140.508C305.64 139.633 305.374 138.828 304.921 138.094C304.468 137.344 303.835 136.703 303.023 136.172C302.226 135.625 301.257 135.203 300.116 134.906C298.991 134.609 297.71 134.461 296.273 134.461C295.491 134.461 294.632 134.508 293.695 134.602C292.757 134.695 291.788 134.836 290.788 135.023C289.788 135.211 288.796 135.445 287.812 135.727C286.843 136.008 285.937 136.344 285.093 136.734L282.984 131.039C284.031 130.664 285.148 130.32 286.335 130.008C287.538 129.695 288.765 129.43 290.015 129.211C291.265 128.977 292.515 128.797 293.765 128.672C295.015 128.547 296.226 128.484 297.398 128.484C302.57 128.484 306.413 129.805 308.929 132.445C311.445 135.086 312.702 139.133 312.702 144.586V156.633H305.765V154.031C305.046 154.453 304.257 154.852 303.398 155.227C302.554 155.602 301.632 155.93 300.632 156.211C299.632 156.492 298.554 156.711 297.398 156.867C296.257 157.039 295.046 157.125 293.765 157.125C291.609 157.125 289.71 156.891 288.07 156.422C286.445 155.953 285.085 155.305 283.991 154.477C282.898 153.648 282.07 152.68 281.507 151.57C280.96 150.445 280.687 149.227 280.687 147.914ZM287.999 147.68C287.999 148.133 288.116 148.57 288.351 148.992C288.585 149.398 288.96 149.766 289.476 150.094C289.991 150.406 290.648 150.664 291.445 150.867C292.257 151.055 293.234 151.148 294.374 151.148C295.593 151.148 296.773 151.039 297.913 150.82C299.054 150.602 300.116 150.313 301.101 149.953C302.085 149.594 302.976 149.18 303.773 148.711C304.57 148.242 305.234 147.758 305.765 147.258V146.039C304.702 145.742 303.648 145.492 302.601 145.289C301.57 145.086 300.577 144.93 299.624 144.82C298.687 144.695 297.796 144.609 296.952 144.563C296.124 144.516 295.398 144.492 294.773 144.492C293.476 144.492 292.398 144.578 291.538 144.75C290.679 144.922 289.984 145.156 289.452 145.453C288.921 145.734 288.546 146.07 288.327 146.461C288.109 146.852 287.999 147.258 287.999 147.68ZM338.695 120H371.46V126.516H346.124V136.102H367.64V142.219H346.124V156.633H338.695V120ZM376.101 142.805C376.101 140.82 376.499 138.961 377.296 137.227C378.109 135.492 379.257 133.977 380.741 132.68C382.241 131.383 384.046 130.359 386.156 129.609C388.281 128.859 390.663 128.484 393.304 128.484C395.945 128.484 398.32 128.859 400.429 129.609C402.554 130.359 404.359 131.383 405.843 132.68C407.343 133.977 408.491 135.492 409.288 137.227C410.101 138.961 410.507 140.82 410.507 142.805C410.507 144.789 410.101 146.648 409.288 148.383C408.491 150.117 407.343 151.633 405.843 152.93C404.359 154.227 402.554 155.25 400.429 156C398.32 156.75 395.945 157.125 393.304 157.125C390.663 157.125 388.281 156.75 386.156 156C384.046 155.25 382.241 154.227 380.741 152.93C379.257 151.633 378.109 150.117 377.296 148.383C376.499 146.648 376.101 144.789 376.101 142.805ZM383.39 142.805C383.39 143.914 383.609 144.969 384.046 145.969C384.499 146.953 385.148 147.828 385.991 148.594C386.851 149.344 387.89 149.945 389.109 150.398C390.343 150.836 391.741 151.055 393.304 151.055C394.866 151.055 396.257 150.836 397.476 150.398C398.71 149.945 399.749 149.344 400.593 148.594C401.452 147.828 402.101 146.953 402.538 145.969C402.991 144.969 403.218 143.914 403.218 142.805C403.218 141.695 402.991 140.641 402.538 139.641C402.101 138.641 401.452 137.766 400.593 137.016C399.749 136.25 398.71 135.648 397.476 135.211C396.257 134.758 394.866 134.531 393.304 134.531C391.741 134.531 390.343 134.758 389.109 135.211C387.89 135.648 386.851 136.25 385.991 137.016C385.148 137.766 384.499 138.641 384.046 139.641C383.609 140.641 383.39 141.695 383.39 142.805ZM417.515 128.977H424.452V132.961C425.984 131.82 427.601 130.836 429.304 130.008C431.007 129.18 432.702 128.547 434.39 128.109L436.429 134.461C433.757 134.727 431.406 135.328 429.374 136.266C427.359 137.188 425.718 138.492 424.452 140.18V156.633H417.515V128.977ZM445.781 134.18H439.101V128.977H445.781V120.375H452.718V128.977H459.398V134.18H452.718V156.633H445.781V134.18ZM465.562 128.953H472.476V142.453C472.476 143.734 472.616 144.906 472.898 145.969C473.179 147.016 473.656 147.914 474.327 148.664C475.015 149.414 475.921 150 477.046 150.422C478.187 150.828 479.601 151.031 481.288 151.031C482.085 151.031 482.89 150.945 483.702 150.773C484.531 150.602 485.32 150.367 486.07 150.07C486.82 149.758 487.515 149.391 488.156 148.969C488.812 148.547 489.374 148.086 489.843 147.586V128.953H496.781V156.633H489.843V154.266C488.14 155.281 486.429 156.008 484.71 156.445C482.991 156.883 481.359 157.102 479.812 157.102C477.281 157.102 475.109 156.797 473.296 156.188C471.499 155.578 470.023 154.695 468.866 153.539C467.726 152.367 466.89 150.938 466.359 149.25C465.827 147.547 465.562 145.609 465.562 143.438V128.953ZM505.593 128.977H512.531V131.32C514.374 130.273 516.132 129.539 517.804 129.117C519.491 128.695 521.14 128.484 522.749 128.484C524.859 128.484 526.812 128.797 528.609 129.422C530.406 130.031 531.96 130.945 533.273 132.164C534.585 133.383 535.609 134.906 536.343 136.734C537.093 138.547 537.468 140.648 537.468 143.039V156.633H530.554V144.164C530.554 142.648 530.335 141.297 529.898 140.109C529.476 138.906 528.859 137.898 528.046 137.086C527.249 136.258 526.273 135.633 525.116 135.211C523.976 134.773 522.695 134.555 521.273 134.555C520.523 134.555 519.749 134.633 518.952 134.789C518.171 134.945 517.398 135.172 516.632 135.469C515.882 135.75 515.156 136.109 514.452 136.547C513.749 136.969 513.109 137.453 512.531 138V156.633H505.593V128.977ZM544.687 147.914C544.687 146.586 544.976 145.375 545.554 144.281C546.132 143.188 546.999 142.25 548.156 141.469C549.312 140.672 550.749 140.063 552.468 139.641C554.202 139.203 556.218 138.984 558.515 138.984C560.218 138.984 562.007 139.109 563.882 139.359C565.773 139.609 567.718 139.992 569.718 140.508C569.64 139.633 569.374 138.828 568.921 138.094C568.468 137.344 567.835 136.703 567.023 136.172C566.226 135.625 565.257 135.203 564.116 134.906C562.991 134.609 561.71 134.461 560.273 134.461C559.491 134.461 558.632 134.508 557.695 134.602C556.757 134.695 555.788 134.836 554.788 135.023C553.788 135.211 552.796 135.445 551.812 135.727C550.843 136.008 549.937 136.344 549.093 136.734L546.984 131.039C548.031 130.664 549.148 130.32 550.335 130.008C551.538 129.695 552.765 129.43 554.015 129.211C555.265 128.977 556.515 128.797 557.765 128.672C559.015 128.547 560.226 128.484 561.398 128.484C566.57 128.484 570.413 129.805 572.929 132.445C575.445 135.086 576.702 139.133 576.702 144.586V156.633H569.765V154.031C569.046 154.453 568.257 154.852 567.398 155.227C566.554 155.602 565.632 155.93 564.632 156.211C563.632 156.492 562.554 156.711 561.398 156.867C560.257 157.039 559.046 157.125 557.765 157.125C555.609 157.125 553.71 156.891 552.07 156.422C550.445 155.953 549.085 155.305 547.991 154.477C546.898 153.648 546.07 152.68 545.507 151.57C544.96 150.445 544.687 149.227 544.687 147.914ZM551.999 147.68C551.999 148.133 552.116 148.57 552.351 148.992C552.585 149.398 552.96 149.766 553.476 150.094C553.991 150.406 554.648 150.664 555.445 150.867C556.257 151.055 557.234 151.148 558.374 151.148C559.593 151.148 560.773 151.039 561.913 150.82C563.054 150.602 564.116 150.313 565.101 149.953C566.085 149.594 566.976 149.18 567.773 148.711C568.57 148.242 569.234 147.758 569.765 147.258V146.039C568.702 145.742 567.648 145.492 566.601 145.289C565.57 145.086 564.577 144.93 563.624 144.82C562.687 144.695 561.796 144.609 560.952 144.563C560.124 144.516 559.398 144.492 558.773 144.492C557.476 144.492 556.398 144.578 555.538 144.75C554.679 144.922 553.984 145.156 553.452 145.453C552.921 145.734 552.546 146.07 552.327 146.461C552.109 146.852 551.999 147.258 551.999 147.68Z" fill="#3A4257"/>
</g>
<g filter="url(#filter1_d_3_56)">
<rect x="10.4804" y="117.486" width="73.6716" height="16.4603" rx="3" transform="rotate(1 10.4804 117.486)" fill="#E44B5D"/>
<rect x="16.788" y="127.317" width="60.758" height="43.7716" rx="6" fill="#E44B5D"/>
<line y1="-1.5" x2="52.8909" y2="-1.5" transform="matrix(0.00457649 -0.99999 0.99999 0.00456911 55.0415 171.089)" stroke="#CCEBDF" stroke-width="3"/>
<line y1="-1.5" x2="52.8909" y2="-1.5" transform="matrix(0.00457649 -0.99999 0.99999 0.00456911 43.6192 171.089)" stroke="#CCEBDF" stroke-width="3"/>
<path d="M16.6555 109.68C24.4823 113.553 41.685 120.718 47.8818 118.394M47.8818 118.394C55.6278 115.489 38.4413 93.7034 32.6318 99.5129C26.8222 105.322 34.5683 116.699 47.8818 118.394ZM47.8818 118.394C55.4665 114.844 70.2001 105.613 68.4572 97.0923C66.2787 86.4415 45.9453 102.902 47.8818 118.394ZM47.8818 118.394C52.3196 115.893 62.3572 110.89 67.0048 110.89C72.8144 110.89 72.8144 112.342 73.5406 114.037C74.2668 115.731 85.1596 111.616 90.243 106.775" stroke="#E44B5D" stroke-width="3" stroke-linecap="round" stroke-linejoin="round"/>
</g>
<defs>
<filter id="filter0_d_3_56" x="163.554" y="60" width="417.148" height="105.125" filterUnits="userSpaceOnUse" color-interpolation-filters="sRGB">
<feFlood flood-opacity="0" result="BackgroundImageFix"/>
<feColorMatrix in="SourceAlpha" type="matrix" values="0 0 0 0 0 0 0 0 0 0 0 0 0 0 0 0 0 0 127 0" result="hardAlpha"/>
<feOffset dy="4"/>
<feGaussianBlur stdDeviation="2"/>
<feComposite in2="hardAlpha" operator="out"/>
<feColorMatrix type="matrix" values="0 0 0 0 0 0 0 0 0 0 0 0 0 0 0 0 0 0 0.25 0"/>
<feBlend mode="normal" in2="BackgroundImageFix" result="effect1_dropShadow_3_56"/>
<feBlend mode="normal" in="SourceGraphic" in2="effect1_dropShadow_3_56" result="shape"/>
</filter>
<filter id="filter1_d_3_56" x="10.245" y="92.2003" width="91.498" height="85.8883" filterUnits="userSpaceOnUse" color-interpolation-filters="sRGB">
<feFlood flood-opacity="0" result="BackgroundImageFix"/>
<feColorMatrix in="SourceAlpha" type="matrix" values="0 0 0 0 0 0 0 0 0 0 0 0 0 0 0 0 0 0 127 0" result="hardAlpha"/>
<feOffset dx="7" dy="4"/>
<feGaussianBlur stdDeviation="1.5"/>
<feComposite in2="hardAlpha" operator="out"/>
<feColorMatrix type="matrix" values="0 0 0 0 0 0 0 0 0 0 0 0 0 0 0 0 0 0 0.51 0"/>
<feBlend mode="normal" in2="BackgroundImageFix" result="effect1_dropShadow_3_56"/>
<feBlend mode="normal" in="SourceGraphic" in2="effect1_dropShadow_3_56" result="shape"/>
</filter>
</defs>
</svg>
